HIERARCHY
ROOT Hips
{
	OFFSET 0.000000 0.000000 0.000000
	CHANNELS 6 Xposition Yposition Zposition Zrotation Yrotation Xrotation
	JOINT LHipJoint
	{
		OFFSET 0.000000 0.000000 0.000000
		CHANNELS 3 Zrotation Yrotation Xrotation
		JOINT LeftUpLeg
		{
			OFFSET 1.363060 -1.794630 0.839290
			CHANNELS 3 Zrotation Yrotation Xrotation
			JOINT LeftLeg
			{
				OFFSET 2.448110 -6.726130 0.000000
				CHANNELS 3 Zrotation Yrotation Xrotation
				JOINT LeftFoot
				{
					OFFSET 2.562200 -7.039590 0.000000
					CHANNELS 3 Zrotation Yrotation Xrotation
					JOINT LeftToeBase
					{
						OFFSET 0.157640 -0.433110 2.322550
						CHANNELS 3 Zrotation Yrotation Xrotation
						End Site
						{
							OFFSET 0.000000 0.000000 0.000000
						}
					}
				}
			}
		}
	}
	JOINT RHipJoint
	{
		OFFSET 0.000000 0.000000 0.000000
		CHANNELS 3 Zrotation Yrotation Xrotation
		JOINT RightUpLeg
		{
			OFFSET -1.305520 -1.794630 0.839290
			CHANNELS 3 Zrotation Yrotation Xrotation
			JOINT RightLeg
			{
				OFFSET -2.542530 -6.985550 0.000000
				CHANNELS 3 Zrotation Yrotation Xrotation
				JOINT RightFoot
				{
					OFFSET -2.568260 -7.056230 0.000000
					CHANNELS 3 Zrotation Yrotation Xrotation
					JOINT RightToeBase
					{
						OFFSET -0.164730 -0.452590 2.363150
						CHANNELS 3 Zrotation Yrotation Xrotation
						End Site
						{
							OFFSET 0.000000 0.000000 0.000000
						}
					}
				}
			}
		}
	}
	JOINT LowerBack
	{
		OFFSET 0.000000 0.000000 0.000000
		CHANNELS 3 Zrotation Yrotation Xrotation
		JOINT Spine
		{
			OFFSET 0.028270 2.035590 -0.193380
			CHANNELS 3 Zrotation Yrotation Xrotation
			JOINT Spine1
			{
				OFFSET 0.056720 2.048850 -0.042750
				CHANNELS 3 Zrotation Yrotation Xrotation
				JOINT Neck
				{
					OFFSET 0.000000 0.000000 0.000000
					CHANNELS 3 Zrotation Yrotation Xrotation
					JOINT Neck1
					{
						OFFSET -0.054170 1.746240 0.172020
						CHANNELS 3 Zrotation Yrotation Xrotation
						JOINT Head
						{
							OFFSET 0.104070 1.761360 -0.123970
							CHANNELS 3 Zrotation Yrotation Xrotation
							End Site
							{
								OFFSET 0.000000 0.000000 0.000000
							}
						}
					}
				}
				JOINT LeftShoulder
				{
					OFFSET 0.000000 0.000000 0.000000
					CHANNELS 3 Zrotation Yrotation Xrotation
					JOINT LeftArm
					{
						OFFSET 3.362410 1.200890 -0.311210
						CHANNELS 3 Zrotation Yrotation Xrotation
						JOINT LeftForeArm
						{
							OFFSET 4.983000 -0.000000 -0.000000
							CHANNELS 3 Zrotation Yrotation Xrotation
							JOINT LeftHand
							{
								OFFSET 3.483560 -0.000000 -0.000000
								CHANNELS 3 Zrotation Yrotation Xrotation
								JOINT LeftFingerBase
								{
									OFFSET 0.000000 0.000000 0.000000
									CHANNELS 3 Zrotation Yrotation Xrotation
									JOINT LeftHandIndex1
									{
										OFFSET 0.715260 -0.000000 -0.000000
										CHANNELS 3 Zrotation Yrotation Xrotation
										End Site
										{
											OFFSET 0.000000 0.000000 0.000000
										}
									}
								}
								JOINT LThumb
								{
									OFFSET 0.000000 0.000000 0.000000
									CHANNELS 3 Zrotation Yrotation Xrotation
									End Site
									{
										OFFSET 0.000000 0.000000 0.000000
									}
								}
							}
						}
					}
				}
				JOINT RightShoulder
				{
					OFFSET 0.000000 0.000000 0.000000
					CHANNELS 3 Zrotation Yrotation Xrotation
					JOINT RightArm
					{
						OFFSET -3.136600 1.374050 -0.404650
						CHANNELS 3 Zrotation Yrotation Xrotation
						JOINT RightForeArm
						{
							OFFSET -5.241900 -0.000000 -0.000000
							CHANNELS 3 Zrotation Yrotation Xrotation
							JOINT RightHand
							{
								OFFSET -3.444170 -0.000000 -0.000000
								CHANNELS 3 Zrotation Yrotation Xrotation
								JOINT RightFingerBase
								{
									OFFSET 0.000000 0.000000 0.000000
									CHANNELS 3 Zrotation Yrotation Xrotation
									JOINT RightHandIndex1
									{
										OFFSET -0.622530 -0.000000 -0.000000
										CHANNELS 3 Zrotation Yrotation Xrotation
										End Site
										{
											OFFSET 0.000000 0.000000 0.000000
										}
									}
								}
								JOINT RThumb
								{
									OFFSET 0.000000 0.000000 0.000000
									CHANNELS 3 Zrotation Yrotation Xrotation
									End Site
									{
										OFFSET 0.000000 0.000000 0.000000
									}
								}
							}
						}
					}
				}
			}
		}
	}
}
MOTION
Frames: 6
Frame Time: 0.008333
90.306747 2.970613 -641.925964 -91.657906 -285.501648 -436.786163 -329.149139 -300.650696 -278.255585 -685.923706 -451.352753 -922.296753 -143.121964 -194.446930 -938.233521 -93.707893 -348.212372 -329.744537 -78.052956 -165.987656 -1010.980347 -484.834167 -183.499863 -84.150108 -470.976105 -357.180328 -501.083923 -224.357315 -348.998840 -1138.720947 -246.467056 -753.275452 -1780.379761 -171.806168 -270.034393 -1410.416504 -254.970825 -128.901367 -546.982239 -178.710648 -161.818298 -145.022079 -65.734085 -57.627728 -331.744293 -344.515076 -261.208588 -362.435425 -59.040871 -273.526459 -401.662842 -113.353363 -166.863846 -339.204071 -359.400726 -268.240356 -72.067360 -2418.600098 -805.471619 -1931.645874 -443.153625 -554.955627 -171.835617 -70.629211 -140.544632 -1477.474731 -788.323914 -1270.993042 -474.083923 -141.430527 0.000000 0.000000 -3478.321533 -5391.397949 -4894.387207 -659.948608 -431.804871 -193.205399 -1981.204712 -756.186890 -1395.680908 -1062.171387 -1298.093506 -986.069336 -111.215652 -95.438911 -914.903320 -5773.708008 -2500.658447 -3873.333984 -111.434166 0.000000 0.000000 -9009.056641 -5791.487305 -9889.508789
91.550949 5.279117 -635.093506 -89.659729 -285.839081 -440.332947 -329.368317 -302.300995 -279.134308 -687.603699 -453.690430 -931.739197 -144.783997 -199.068787 -955.846375 -96.727036 -360.217316 -341.295746 -80.364456 -167.612503 -1012.882141 -485.957306 -183.493439 -83.790115 -473.346985 -359.510498 -503.086090 -225.401321 -349.755798 -1137.928833 -246.343094 -751.711548 -1781.558350 -171.167007 -267.627045 -1407.217163 -253.666382 -128.101608 -543.835693 -177.836853 -160.329056 -144.296570 -65.915604 -57.824001 -332.160522 -339.952698 -258.529968 -357.163635 -57.069065 -273.055481 -401.879791 -111.565125 -166.305740 -336.857178 -358.335693 -267.561798 -72.131477 -2419.319092 -803.997803 -1926.747681 -440.798431 -562.455750 -173.142532 -70.819839 -140.548782 -1470.485962 -788.839417 -1279.894043 -477.705566 -143.215485 0.000000 0.000000 -3533.347900 -5450.486816 -4942.760254 -669.375854 -438.704468 -194.896042 -2002.747437 -762.751160 -1409.097046 -1072.874878 -1308.806396 -992.862183 -111.821594 -96.720688 -925.476746 -5863.391113 -2535.581055 -3926.470215 -112.386383 0.000000 0.000000 -9069.217773 -5835.274902 -9994.460938
92.701141 7.152675 -628.757507 -87.858032 -286.327972 -443.135498 -329.890289 -304.080109 -280.194427 -689.300049 -455.956116 -941.338623 -146.341675 -203.931122 -975.269714 -99.695671 -371.414581 -348.876862 -81.745720 -167.156036 -1008.622437 -485.286743 -183.032227 -83.148071 -473.496185 -361.046814 -503.916656 -226.246872 -350.507599 -1136.334229 -245.521378 -747.610596 -1781.602417 -170.572678 -265.660919 -1403.304077 -251.370956 -126.595467 -539.654907 -176.576492 -158.445267 -143.630539 -65.898598 -58.044315 -331.609650 -335.544800 -256.001404 -350.565155 -54.821987 -272.999542 -402.911163 -110.935905 -166.820450 -335.680878 -357.952240 -267.520203 -72.426643 -2429.674316 -805.560913 -1928.913574 -439.653107 -570.392456 -174.700531 -71.236763 -141.113052 -1469.239746 -793.663452 -1292.015137 -483.065338 -145.395889 0.000000 0.000000 -3600.075439 -5527.081055 -5004.336426 -681.377319 -447.133636 -197.369156 -2035.136841 -769.765320 -1423.218994 -1081.215210 -1314.943115 -996.776978 -112.153831 -97.550117 -932.625061 -5934.587402 -2557.954834 -3959.394775 -112.836136 0.000000 0.000000 -9100.089844 -5863.985840 -10069.289062
93.777847 8.806281 -622.859436 -86.136078 -286.932831 -446.088196 -330.602295 -305.628601 -280.987732 -689.503235 -456.981445 -948.991028 -147.718399 -209.047714 -995.597229 -102.961578 -383.697479 -357.620148 -83.290329 -167.812103 -1007.370239 -484.357147 -182.388641 -82.138565 -472.872711 -362.119873 -504.343018 -226.941742 -351.360809 -1134.802124 -244.843887 -746.218262 -1784.428101 -170.330551 -264.712646 -1402.559692 -249.849258 -125.585327 -536.758057 -175.835052 -157.100967 -144.275253 -66.322807 -58.513329 -332.795135 -332.914917 -254.377823 -345.417480 -53.448105 -273.441956 -404.969696 -111.061005 -167.867523 -335.041931 -358.599152 -267.649017 -72.679276 -2443.564453 -808.492554 -1934.040405 -439.375366 -579.316895 -176.631744 -71.802383 -141.995071 -1470.613892 -800.046204 -1306.662720 -489.748688 -147.799057 0.000000 0.000000 -3669.009521 -5613.602539 -5073.777832 -694.067993 -455.640289 -199.841339 -2067.705322 -775.759583 -1437.025024 -1087.779907 -1317.273071 -999.682800 -112.429901 -98.297676 -938.147217 -6000.318848 -2576.369385 -3987.395020 -113.178429 0.000000 0.000000 -9127.986328 -5891.348633 -10141.779297
94.743904 10.110196 -618.612183 -84.074455 -287.481476 -448.884338 -331.092743 -307.453278 -281.967133 -691.239197 -459.260345 -959.980225 -149.625336 -213.725357 -1015.388733 -105.947449 -394.652344 -366.420471 -84.794388 -168.844437 -1005.281189 -483.271942 -181.564484 -81.149117 -471.704895 -361.945007 -502.588318 -227.036163 -351.460358 -1133.126465 -244.387909 -742.293640 -1784.449585 -170.256226 -264.334808 -1401.773804 -248.255478 -124.728577 -534.889587 -175.929398 -157.054611 -145.160461 -66.602631 -58.864109 -333.391479 -330.799774 -253.146164 -339.637939 -51.573112 -272.991882 -405.323151 -110.868034 -168.516006 -332.701202 -357.085388 -266.108582 -72.454559 -2450.198975 -809.917664 -1932.278809 -436.892944 -584.243835 -177.822739 -72.366127 -143.321594 -1478.035522 -808.595520 -1324.953613 -497.159424 -150.154099 0.000000 0.000000 -3738.966553 -5707.262695 -5150.000977 -707.072937 -464.145905 -202.506775 -2103.447754 -782.589905 -1450.067871 -1096.069214 -1323.468750 -1002.909729 -112.756744 -98.913330 -942.226501 -6071.767090 -2596.674316 -4012.832764 -113.523781 0.000000 0.000000 -9149.149414 -5916.697754 -10220.511719
95.524925 10.560683 -618.331238 -82.671715 -288.433655 -451.373932 -331.046539 -308.649963 -282.587128 -691.929810 -461.528290 -968.843872 -150.987930 -216.978241 -1031.297119 -108.677795 -403.024628 -371.367188 -85.593529 -167.415558 -995.110596 -479.668427 -180.205109 -80.022400 -470.175537 -361.500000 -501.259155 -227.233353 -351.485596 -1130.579468 -243.802948 -738.684387 -1786.036133 -170.209976 -264.224518 -1399.610840 -246.242340 -123.771675 -532.455872 -175.834091 -157.070419 -145.591766 -66.151695 -59.130795 -333.566650 -328.631256 -251.670242 -332.890167 -49.100346 -273.051666 -406.456207 -111.382401 -169.719543 -332.336487 -357.811310 -266.208923 -72.591469 -2464.802734 -815.228149 -1944.926025 -439.145477 -593.824768 -180.260117 -73.124138 -144.909378 -1482.251831 -815.835083 -1338.809937 -502.766663 -152.127975 0.000000 0.000000 -3792.184570 -5787.522461 -5212.450195 -718.705078 -471.674347 -204.543457 -2131.450195 -787.513000 -1460.866943 -1102.053101 -1328.901245 -1008.133972 -113.362129 -99.865173 -948.810730 -6135.665527 -2609.950684 -4039.965088 -113.957329 0.000000 0.000000 -9169.897461 -5940.609375 -10297.586914
